<?xml version="1.0" encoding="UTF-8"?>
<svg id="Camada_1" xmlns="http://www.w3.org/2000/svg" version="1.1" viewBox="0 0 500 300">
  <!-- Generator: Adobe Illustrator 30.0.0, SVG Export Plug-In . SVG Version: 2.1.1 Build 123)  -->
  <defs>
    <style>
      .st0 {
        fill: #5bdb9d;
      }

      .st1 {
        fill: #4fcf92;
      }

      .st2 {
        fill: #4ece91;
      }

      .st3 {
        fill: #f1efee;
      }

      .st4 {
        fill: #4abb85;
      }

      .st5 {
        fill: #f8f5f4;
      }

      .st6 {
        fill: #5fe4a0;
      }

      .st7 {
        fill: #58da9d;
      }

      .st8 {
        fill: #fbfbfb;
      }

      .st9 {
        fill: #f9f9f9;
      }

      .st10 {
        fill: #f3efee;
      }

      .st11 {
        fill: #52cd92;
      }

      .st12 {
        fill: #5be3a1;
      }

      .st13 {
        fill: #49c78a;
      }

      .st14 {
        fill: #f9f5f4;
      }

      .st15 {
        fill: none;
        stroke: #fefefe;
        stroke-linecap: round;
        stroke-linejoin: round;
      }

      .st16 {
        fill: #49cf8a;
      }

      .st17 {
        fill: #5ada9d;
      }

      .st18 {
        fill: #4dce91;
      }

      .st19 {
        fill: #fafafa;
      }

      .st20 {
        fill: #53d69a;
      }

      .st21 {
        fill: #56d195;
      }

      .st22 {
        fill: #4fd092;
      }
    </style>
  </defs>
  <path d="M373.52,182.55l-.29.29c.08.17.18.07.29-.29Z"/>
  <path class="st14" d="M121.46,106.86c2.29-1.21,5.97-.57,5.2-3.58l-21.08-.5c-.5.01-1.01-.02-1.51,0,.13.73-.22,3.24.03,3.49.91.94,10.19-.26,7.88,6.17-5.66,15.89-11.03,31.92-17.06,47.67-.67,1.74-4.93,13.73-5.66,13.92-1.08.28-.64-.55-.88-1.1-8.91-20.03-15.91-41.08-23.85-61.52-.46-5.39,7.03-4.16,7.88-5.17.3-.36-.08-2.25.05-2.96h-40.14c-.76,4.15,1.34,2.87,4.28,4,3.52,1.35,4.36,2.75,6.02,6.02,10.95,25.44,19.66,52.05,31.11,77.27.9,1.98,1.16,4.24,3.47,4.56,1.37.18,8.47.18,9.06-.52,5.67-14.53,11.55-28.98,17.18-43.53,4.55-11.75,8.4-24.84,13.43-36.24,1.02-2.32,2.5-5.8,4.76-7.03-1.56.2-1.09-.46-.18-.94Z"/>
  <path class="st2" d="M391.09,151.19c-.01-.85.32-2.23-.51-2.75.25,3.84.34,7.93.35,12.1.11-3.34.2-6.53.16-9.35Z"/>
  <path class="st2" d="M387.57,194.59l-.51-1c2.72,1.45,4.99-.85,7.53,0,1.61-.72,3.6-1.24,4.52-3.01-.81-.43-.47-1.7-.5-2.51-1.14.09-2.29.95-3.31.99-2.25.08-3.88-1.64-4.18-3.78-.24-1.74-.39-3.66-.47-5.7-.02,1.09-.04,2.17-.05,3.23-.01.85.32,2.23-.51,2.75l-.5-2.26c.58-10.83-.77-22.43-.04-33.17.07-1.03.3-1.07.54-1.7.13-.35.09-.76.5-1-.6-5.89-4.51-10.75-9.53-13.55-.58,1.61-3.28.26-3.51.5-.09.1.09,1.91-.12,2.64-.69,2.44-1.94,3.47-1.28,6.53.23,1.07,1.16,1.9,1.36,3.15.27,1.72-.16,3.66.08,5.44,1.17,8.39,3.73,16.78.47,25.17-.34.88-2.26,4.39-3.3,2.75-.66-1.03.4-3.11-.73-3.53l-.51,6.02c-.12.37-.21.46-.29.29l-.2.21c-.03-.67.02-1.34,0-2.01-1.96,9.76-17.63,9.28-19.02-.8-1.81-13.13,6.91-18.1,18.52-19.27.55.54-.78,13.21.5,15.05-.03-3.91-.64-11.68,0-15.05.09-.48,1.14-1.05,1.01-1.74-.46-2.34-14.06,1.84-14.06.49,4.29-.79,8.66-1.78,13.05-1.75.02-1.67-.04-3.35,0-5.02l-.5,4.52c-11.86,1.18-34.09,3.96-36.41,18.54-1.12,7.03,1.33,12.92,7.3,16.58l9.29,2,11.28-.49c3.91-1.37,6.37-3.01,9.28-6.02.92,2.28,1.78,3.55,3.76,5.01l7.26,1.52,3.28-.02Z"/>
  <path class="st5" d="M455.17,174.15c-12.96,1.98-10.83,21.8,2.26,21.32,15.2-.56,13.12-23.67-2.26-21.32Z"/>
  <path class="st22" d="M429.03,119.66c4.12-4.09,3.77-11.55-.81-15.13-8.42-6.58-20.11,1.66-16.17,11.65,2.63,6.66,11.94,8.49,16.98,3.48Z"/>
  <path class="st21" d="M343.41,192.59c6.3,3.86,13.73,3.9,20.57,1.51l-11.28.49-9.29-2Z"/>
  <path class="st9" d="M121.46,106.86c-.91.48-1.37,1.13.18.94,1.26-.69,5.77-1.32,5.97-1.56.32-.37-.1-2.69.05-3.47-7.34.16-14.74-.21-22.08,0l21.08.5c.77,3.01-2.91,2.37-5.2,3.58Z"/>
  <line class="st15" x1="32.33" y1="103.28" x2="72.47" y2="103.28"/>
  <path class="st11" d="M394.59,193.59c-2.54-.85-4.81,1.45-7.53,0l.51,1-3.28.02-7.26-1.52c5.27,3.91,12.02,2.98,17.56.5Z"/>
  <path class="st7" d="M390.08,148.44v37.13c.83-.52.5-1.9.51-2.75.01-1.06.03-2.14.05-3.23.11-6.13.3-12.67.29-19.04,0-4.17-.09-8.26-.35-12.1-.02-.33.03-.68,0-1-.41.24-.37.65-.5,1Z"/>
  <path class="st6" d="M399.11,190.58c.48-.93.72-1.37.5-2.51-.33,0-.67-.03-1,0,.03.8-.31,2.08.5,2.51Z"/>
  <path class="st5" d="M256.49,196.47c-1.21-7.83-9.39-12.26-16.44-13.42-.16.16-.31.39-.5.5-1.75,1.02-2.9.3-4.47.05-2.15.02-4.29.02-6.44,0-6.33.2-14.02.6-18.19-.55-.1-.03-2.1-.63-1.25-1.01,9.01,1.26,18.27.02,27.34.51-6.16-2.02-26.07,1.9-30.12-2.75-2.41-2.76-.05-7.75,3-8.58.93-.25,8.7,1.68,10.81,1.79,17.87.9,35.32-9.85,27.61-29.62l-4.79-6.5h13.55c-.19-1.19.58-5.67-.73-5.89l-17.59,2.43c-9.15-3.4-19.01-4.3-28.45-1.41-19.48,5.96-21.89,28.28-3.91,37.74-13.16,5.66-17.24,19.12-2.51,26.09-20.11,7.21-14.38,22.65,4.49,26.11,18.07,3.32,52.62.63,48.57-25.49ZM219.35,134.5c14.34-2.93,14.96,18.79,11.26,27.82-2.16,5.29-6.27,8.16-11.98,5.78-9.84-4.09-9.73-31.46.72-33.6ZM237.04,216.42c-10,4.52-35.77,3.81-34.12-12.04.23-2.16,2.54-7.27,4.84-7.63,1.59-.25,5.53.82,7.43.88,6.78.2,16.38-1.01,22.63.95,10.22,3.22,7.62,14.04-.78,17.84Z"/>
  <path class="st19" d="M234.31,183.54c-1.62-.04-3.56,0-5.66.07,2.15.02,4.3.02,6.44,0-.25-.04-.51-.07-.78-.07Z"/>
  <path class="st19" d="M209.2,182.05c-.85.38,1.14.98,1.25,1.01l29.1.5c.19-.11.34-.34.5-.5-1.27-.21-1.94-.42-3.51-.5-9.07-.49-18.33.75-27.34-.51Z"/>
  <path class="st10" d="M228.64,183.61c2.1-.07,4.04-.11,5.66-.07.27,0,.53.04.78.07,1.57.25,2.72.97,4.47-.05l-29.1-.5c4.17,1.16,11.87.76,18.19.55Z"/>
  <path class="st5" d="M176.34,151.19c0-.85.32-2.23-.51-2.75.25,3.8.34,7.85.34,11.97.11-3.29.2-6.44.17-9.22Z"/>
  <path class="st5" d="M176.37,185.28c-.25-1.78-.4-3.75-.48-5.85-.02.97-.03,1.94-.04,2.88-.01.85.32,2.23-.51,2.75l-.5-.75c.57-11.35-.76-23.41-.03-34.68.06-1.01.08-.93.53-1.71.11-.19.34-.34.5-.5-2.01-19.68-30.5-19.95-43.99-12.64-1.25.68-5.73,3.81-6.07,4.96-.21.69.12,7.4.39,7.68.1.1,2.63.1,2.93-.08.27-.17,2.39-4.34,3.33-5.44,4.35-5.08,10.71-7.16,17.35-5.79,6.68,1.37,8.12,8.82,8.49,14.58.08,1.2.29,6.38-.81,6.69-2.47.68-6.49.7-9.31,1.24-10.27,1.99-25.16,5.29-26.87,17.78-2.88,21.02,25.99,24.81,37.25,11.67,3.41,9.31,16.95,9.24,24,4.42,1.06-.73,3.48-3.22,2.34-4.43-.36-.38-7.61,3.53-8.5-2.8ZM158.3,180.82c-.89,9.2-15.97,9.92-18.85.23-3.7-12.43,7.34-19.46,18.32-20.08.7.7.74,17.61.53,19.85Z"/>
  <path class="st8" d="M175.33,147.93v37.13c.83-.52.5-1.9.51-2.75.01-.95.03-1.91.04-2.88.11-6.11.3-12.66.29-19.02,0-4.13-.09-8.18-.34-11.97-.02-.33.03-.68,0-1-.16.16-.39.31-.5.5Z"/>
  <path class="st3" d="M174.8,149.64c-.72,11.26.61,23.33.03,34.68l.5.75v-37.13c-.45.77-.47.7-.53,1.71Z"/>
  <path class="st5" d="M326.85,188.08c-.63-.67-4.71,2.99-7.52-1.01.61-.63.39-1.23-.5-1-.13-.33.03-.82-.5-1-.03.67.03,1.34,0,2h-.49c.19-.62-.51-1.45-.51-1.75v-37.63c0-1.19-2.26-4.13-1-5.27-7.23-15.81-34.32-14.99-46.12-5.23-4.42,3.66-1.75,5.24-2.05,10.25,3.53.44,2.47-.14,3.79-1.98,4.99-6.95,9.4-10.52,18.57-9.59,7.19.72,9.27,7.05,9.75,13.33.11,1.47.46,7.8-.82,8.2-2.12.66-6.69.74-9.3,1.23-8.37,1.57-20.07,4.03-24.58,12.05-6.65,11.85.91,23.71,13.89,24.91,8.8.82,15.12-1.77,21.56-7.52,1.88,7.76,11.44,8.51,17.92,6.88,2.86-.72,9.15-3.12,7.92-6.87ZM300.26,182.81c0,.18-1.87,2.45-2.25,2.77-5.94,4.94-15.69,2.11-16.77-5.82-1.76-12.88,7.74-17.87,19.02-18.77v21.83Z"/>
  <path class="st13" d="M389.54,150.14c-.73,10.74.62,22.34.04,33.17l.5,2.26v-37.13c-.23.63-.47.67-.54,1.7Z"/>
  <path class="st18" d="M430.72,190.59c.84.47,2.3-.51,2.51-.51-1.05-1.38-1.86-2.99-2.01-4.77-.17-17.23.22-34.46,0-51.69-.01-.85.32-2.23-.51-2.75l-.25,55.7-.25-55.7c-2.93.67-24.61,4.12-25.03,5.33-.19.55-.17,1.77.16,2.23.68.95,6.67-.28,7.32,5.22-.92,9.54.38,20.74.49,31.04v-31.28h.5v42.65h-.5v-8.81c-.03,2.95-.18,5.82-.55,8.52-.48,3.57-2.2,4.68-5.47,5.31-2.15.62-1.49,1.54-1.51,3.51.72.24,3.41-.02,4.52,0h16.46c4.05-.03,8.09-.05,12.13,0,.02-.17-.02-.34,0-.5l-8.03-.51c.61-1.13.62-1.88,0-3Z"/>
  <path class="st18" d="M407.14,191.08c-.17,0-.32,0-.47.02.19,0,.35,0,.47-.02Z"/>
  <polygon class="st20" points="430.72 130.88 430.22 130.88 430.47 186.57 430.72 130.88"/>
  <path class="st16" d="M436.11,190.97c-.93-.22-1.97-.88-2.88-.89-.21,0-1.67.97-2.51.51.62,1.12.61,1.87,0,3l8.03.51c.57-4.09-.22-2.55-2.64-3.13Z"/>
  <path class="st4" d="M426.61,194.6h-16.46c5.48.09,10.97.04,16.46,0Z"/>
  <path class="st4" d="M426.61,194.6h12.13c-4.04-.05-8.09-.03-12.13,0Z"/>
  <path class="st4" d="M407.14,191.08c-.12.02-.28.03-.47.02-.61-.01-1.45-.13-1.54-.02-.13.14-.27,3.26.5,3.51.02-1.97-.65-2.89,1.51-3.51Z"/>
  <polygon class="st12" points="413.66 186.07 413.66 143.42 413.16 143.42 413.16 174.69 413.16 177.26 413.16 186.07 413.66 186.07"/>
  <path class="st1" d="M372.51,146.43c0,.21.01.42.02.63,0-.22,0-.43-.02-.63Z"/>
  <path class="st1" d="M373.02,157.97c-4.39-.02-8.76.96-13.05,1.75,0,1.35,13.6-2.83,14.06-.49.14.69-.91,1.27-1.01,1.74.83.52.5,1.9.51,2.75.07,6.27-.07,12.56,0,18.82l.51-6.02c1.14.42.07,2.49.73,3.53,1.05,1.64,2.96-1.87,3.3-2.75,3.25-8.39.69-16.77-.47-25.17-.25-1.78.19-3.72-.08-5.44-.2-1.25-1.13-2.08-1.36-3.15-.66-3.05.59-4.08,1.28-6.53.21-.73.03-2.55.12-2.64.23-.25,2.93,1.11,3.51-.5-10.17-5.67-27.89-4.37-37.29,2.59-5.21,3.86-2.52,5.21-2.85,10.95,3.96.94,4.5-3.48,6.77-6.03,4.2-4.7,10.24-6.43,16.44-5.39,5.32.89,7.46,5.69,8.4,10.42.32,1.6.41,2.26.5,4.01.05.82.02,1.68,0,2.51-.03,1.67.02,3.35,0,5.02ZM361.73,135.39c-1.25.05-2.52-.03-3.77,0-.12-.88,1.14-.47,1.75-.5,1.25-.05,2.52.03,3.77,0,.12.88-1.14.47-1.75.5ZM374.03,162.99h.49v3.51h-.49v-3.51ZM374.03,150.95c1.15.66.2,3.35.49,4.51-1.16-.7-.2-3.35-.49-4.51Z"/>
  <path class="st2" d="M372.54,147.05c-.03,1.19-.37,2.66.48,3.39-.1-1.76-.18-2.41-.5-4.01.02.19.03.41.02.63Z"/>
  <path class="st17" d="M373.53,163.73c0-.85.32-2.23-.51-2.75-.64,3.37-.03,11.14,0,15.05.01,1.67-.05,3.35,0,5.02.02.67-.02,1.34,0,2.01l.2-.21.29-.29c-.06-6.27.07-12.55,0-18.82Z"/>
  <path class="st0" d="M359.71,134.89c-.61.03-1.86-.38-1.75.5,1.25-.03,2.52.06,3.77,0,.61-.03,1.86.38,1.75-.5-1.25.03-2.52-.06-3.77,0Z"/>
  <path class="st2" d="M374.52,155.46c-.29-1.16.66-3.85-.49-4.51.3,1.16-.67,3.81.49,4.51Z"/>
  <rect class="st2" x="374.03" y="162.99" width=".49" height="3.51"/>
</svg>