<?xml version="1.0" encoding="UTF-8"?>
<svg id="Camada_1" xmlns="http://www.w3.org/2000/svg" version="1.1" viewBox="0 0 500 500">
  <defs>
    <style>
      .st0 { fill: #50d393; }
      .st1 { fill: #49c889; }
      .st2 { fill: #010101; }
      .st3 { fill: #0a0908; }
      .st4 { fill: #f8f5f4; }
      .st5 { fill: #51d494; }
      .st6 { fill: #030303; }
      .st7 { fill: #0d0e0d; }
      .st8 { fill: #151515; }
      .st9 { fill: #fefefe; }
      .st10 { fill: #101010; }
      .st11 { fill: #020203; }
      .st12 { fill: #50d093; }
    </style>
  </defs>
  <path class="st8" d="M395.57,369.37c99.76-129.64-.27-312.5-162.3-302.65-124.85,7.59-208.38,133.95-165.04,252.14,50.71,138.29,237.35,167.46,327.34,50.52ZM247.12,369.44h-22.2v-.65h22.2v.65ZM304.57,331.9c.07,1.63-.04,3.28,0,4.9-1.14.15-.61-1.48-.65-2.27-.07-1.63.04-3.28,0-4.9,1.14-.15.61,1.48.65,2.27ZM343.76,350.85c-22.85,18.64-52.97-13.86-31.78-34.71,23.11-22.74,56.63,14.44,31.78,34.71ZM284.13,233.12c2.05-8.33,9.1-21.62,12.61-30.15,3.49-8.46,5.57-22.09,15.67-24.81.81-.22,2.48-.58,3.26-.65,4.17-.39,8.6-.27,13.06-.1,4.79,0,9.57.03,14.36.1,4.92,3.08.73,6.96-.78,10.65-3.91,9.53-8.41,18.91-13.58,27.87-1.75,4.84-4.98,11.4-7.83,15.67-2.76,4.14-4.99,6.9-10.29,7.66-5.32.76-17.21.66-22.71.2-4.52-.38-4.83-2.13-3.77-6.44ZM230.15,197.43c-.08-1.84.05-3.71,0-5.55,1.14-.15.61,1.48.65,2.27.08,1.84-.05,3.71,0,5.55-1.14.15-.61-1.48-.65-2.27ZM134.51,189.91h94.98s-2.27.66-2.27.66c-28.94.24-57.9-.31-86.84-.01-1.1.01-2.9-.42-3.58.66,30.76,0,61.54.01,92.31-.01.71-.07.33.84.39,1.32.32,2.5.87,7.49-1.96,7.83.65.03,1.31-.03,1.95,0v.64c-1.01-.06-2.68.45-3.26-.65-5.11.23-12.89,1.83-13.71,7.83.74,1.59,1.85,5.19.65,6.53l43.1,105.1,1.46-.83,16.81-40.3c.91-.92,7.93-.95,9.49-.67.51.09,1.04-.02.96.67l-36.65,89.35-23.96-.02-66.36-153.32c-5.67-10.04-12.23-13.87-23.75-15.1-.09-2.33-.24-4.76-.09-7.09.02-.31.58-.89.65-1.31.01-.07-1.27-1.07-.32-1.31ZM132.88,197.43c-.08-2.06.05-4.15,0-6.21,1.14-.15.61,1.48.65,2.27.08,2.06-.05,4.15,0,6.21-1.14.15-.61-1.48-.65-2.27Z"/>
  <path class="st7" d="M136.79,191.22c.68-1.08,2.48-.65,3.58-.66,28.94-.3,57.9.25,86.84.01l2.27-.65h-94.98c-.94.23.34,1.23.32,1.3-.07-1.03,1.72-.95,1.96,0Z"/>
  <rect class="st7" x="224.93" y="368.79" width="22.2" height=".65"/>
  <path class="st3" d="M284.99,278.7c.08-.69-.44-.58-.96-.67-1.56-.28-8.58-.25-9.49.67,3.39-.46,7.19-.79,10.45,0Z"/>
  <path class="st4" d="M311.98,316.14c-21.19,20.85,8.93,53.36,31.78,34.71,24.85-20.27-8.67-57.46-31.78-34.71Z"/>
  <path class="st12" d="M294.74,211.07c.07.63,1.72.57,1.86,1.31.27,1.47-2.25,5.7-3.45,6.9l-.97-2.6c-.36,4.93-5.81,11.63-6.4,16.14-.11.81.95,5.12,1.26,5.32.86.56,18.7.43,20.44.12.73-.13.02-1.98,1.01-2.99.2-.2,4.48-2.97,4.75-3.09,2.29-.98,3.05.1,4.66-.01,1.36-.1,3.33-3.25,3.01-.48,2.85-4.27,6.08-10.83,7.83-15.67,1.25-3.45,3.84-8.19,4.91-11.75.35-1.17-.44-2.41.44-4.1.7-1.35,1.88-1.46,2.72-2.6.74-1.01,4.41-8.5,4.72-9.6.4-1.4-2.04-6.97-1.4-7.87.94-1.33,3.45.18,3.63-1.28l-31.33-.66c-10.1,2.72-12.18,16.35-15.67,24.81,1.76,2.11-2.2,6.3-2,8.11Z"/>
  <path class="st0" d="M287.9,239.55c5.5.46,17.39.57,22.71-.2,5.3-.76,7.52-3.53,10.29-7.66.32-2.77-1.65.38-3.01.48-1.61.12-2.37-.97-4.66.01-.27.12-4.56,2.88-4.75,3.09-.99,1.01-.27,2.86-1.01,2.99-1.73.31-19.58.43-20.44-.12-.31-.2-1.36-4.51-1.26-5.32.59-4.5,6.04-11.21,6.4-16.14l.97,2.6c1.2-1.2,3.72-5.43,3.45-6.9-.13-.74-1.79-.69-1.86-1.31-.2-1.8,3.76-6,2-8.11-3.51,8.53-10.55,21.82-12.61,30.15-1.06,4.31-.76,6.06,3.77,6.44Z"/>
  <path class="st5" d="M343.09,177.51c-4.79-.07-9.58-.1-14.36-.1.9.03,1.8.07,2.69.1h11.67Z"/>
  <path class="st5" d="M340.11,180.1c-.64.9,1.8,6.48,1.4,7.87-.31,1.1-3.99,8.59-4.72,9.6-.83,1.14-2.01,1.25-2.72,2.6-.88,1.69-.08,2.93-.44,4.1-1.07,3.56-3.66,8.29-4.91,11.75,5.18-8.96,9.67-18.34,13.58-27.87,1.51-3.69,5.7-7.57.78-10.65-3.76.26-7.71.15-11.67,0h-15.75c-.79.07-2.46.44-3.26.65l31.33.66c-.18,1.46-2.69-.05-3.63,1.28Z"/>
  <path class="st1" d="M343.09,177.51h-11.67c3.96.15,7.91.26,11.67,0Z"/>
  <path class="st1" d="M328.73,177.41c-4.46-.17-8.89-.29-13.06.1h15.75c-.9-.03-1.8-.07-2.69-.1Z"/>
  <path class="st4" d="M134.27,199.61c11.52,1.22,18.08,5.06,23.75,15.1l66.36,153.32,23.96.02,36.65-89.35c-3.26-.79-7.06-.46-10.45,0l-16.81,40.3-1.46.83-43.1-105.1c-.83-1.76-.92-4.59-.65-6.53.82-6.01,8.6-7.6,13.71-7.83.43-.02.88-.02,1.31,0,2.83-.34,2.28-5.33,1.96-7.83h-95.31c-.15,2.33,0,4.76.09,7.09Z"/>
  <path class="st9" d="M229.49,192.52c-.06-.47.32-1.39-.39-1.32-30.77.02-61.55.01-92.31.01-.24-.95-2.03-1.03-1.96,0-.07.42-.63.99-.65,1.31h95.31Z"/>
  <path class="st10" d="M213.17,214.72c1.19-1.34.08-4.94-.65-6.53-.27,1.94-.18,4.77.65,6.53Z"/>
  <path class="st2" d="M133.52,199.7c-.05-2.06.09-4.14,0-6.21-.03-.79.49-2.43-.65-2.27.05,2.06-.09,4.14,0,6.21.03.79-.49,2.43.65,2.27Z"/>
  <path class="st11" d="M230.79,199.7c-.04-1.84.08-3.71,0-5.55-.03-.79.49-2.43-.65-2.27.04,1.84-.08,3.71,0,5.55.03.79-.49,2.43.65,2.27Z"/>
  <path class="st2" d="M303.92,329.62c.03,1.62-.08,3.27,0,4.9.03.79-.49,2.43.65,2.27-.03-1.62.08-3.27,0-4.9-.03-.79.49-2.43-.65-2.27Z"/>
  <path class="st6" d="M226.23,200.36c.58,1.09,2.25.59,3.26.65v-.64c-.65-.04-1.31.03-1.96,0-.43-.02-.88-.02-1.31,0Z"/>
</svg>
